<svg width="233" height="30" viewBox="0 0 233 30" fill="none" xmlns="http://www.w3.org/2000/svg">
<rect width="232.897" height="29.2562" rx="5.85124" fill="#212936" fill-opacity="0.4"/>
<path d="M23.3093 10.591V18.6654C23.3093 18.7992 23.2561 18.9276 23.1615 19.0222C23.0669 19.1168 22.9385 19.17 22.8047 19.17C22.6708 19.17 22.5425 19.1168 22.4478 19.0222C22.3532 18.9276 22.3 18.7992 22.3 18.6654V10.591C22.3 10.4571 22.3532 10.3288 22.4478 10.2341C22.5425 10.1395 22.6708 10.0863 22.8047 10.0863C22.9385 10.0863 23.0669 10.1395 23.1615 10.2341C23.2561 10.3288 23.3093 10.4571 23.3093 10.591ZM25.8326 10.0863C25.6987 10.0863 25.5704 10.1395 25.4757 10.2341C25.3811 10.3288 25.3279 10.4571 25.3279 10.591V18.6654C25.3279 18.7992 25.3811 18.9276 25.4757 19.0222C25.5704 19.1168 25.6987 19.17 25.8326 19.17C25.9664 19.17 26.0948 19.1168 26.1894 19.0222C26.284 18.9276 26.3372 18.7992 26.3372 18.6654V10.591C26.3372 10.4571 26.284 10.3288 26.1894 10.2341C26.0948 10.1395 25.9664 10.0863 25.8326 10.0863ZM20.7861 14.6282C20.7863 14.7961 20.744 14.9613 20.6632 15.1084C20.5823 15.2556 20.4655 15.3799 20.3237 15.4697L14.7605 19.0117C14.6092 19.1085 14.4346 19.1628 14.255 19.1691C14.0754 19.1754 13.8975 19.1333 13.7397 19.0474C13.5819 18.9614 13.4501 18.8346 13.3581 18.6803C13.266 18.526 13.217 18.3498 13.2163 18.1702V11.0861C13.217 10.9065 13.266 10.7303 13.3581 10.576C13.4501 10.4217 13.5819 10.2949 13.7397 10.2089C13.8975 10.123 14.0754 10.0809 14.255 10.0872C14.4346 10.0935 14.6092 10.1479 14.7605 10.2446L20.3237 13.7867C20.4655 13.8765 20.5823 14.0007 20.6632 14.1479C20.744 14.295 20.7863 14.4603 20.7861 14.6282ZM19.7654 14.6282L14.2256 11.1007V18.1563L19.7654 14.6282Z" fill="white"/>
<path d="M31.8511 10.2396C31.8511 7.81597 33.8158 5.8512 36.2395 5.8512H89.6321C92.0557 5.8512 94.0205 7.81596 94.0205 10.2396V19.0165C94.0205 21.4401 92.0557 23.4049 89.6321 23.4049H36.2395C33.8158 23.4049 31.8511 21.4401 31.8511 19.0165V10.2396Z" fill="#18181B"/>
<rect x="51.9646" y="8.77686" width="21.9421" height="1.46281" fill="#D9D9D9"/>
<path d="M110.483 15.4696L116.046 19.0122C116.198 19.109 116.372 19.1634 116.552 19.1697C116.731 19.176 116.909 19.1339 117.067 19.0479C117.225 18.962 117.357 18.8352 117.449 18.6809C117.541 18.5266 117.59 18.3504 117.59 18.1707L117.59 15.8178L122.607 19.0122C122.758 19.109 122.933 19.1634 123.112 19.1697C123.292 19.176 123.47 19.1339 123.627 19.0479C123.785 18.962 123.917 18.8352 124.009 18.6809C124.101 18.5266 124.15 18.3504 124.151 18.1707L124.151 11.0854C124.15 10.9059 124.101 10.7298 124.009 10.5756C123.917 10.4214 123.785 10.2948 123.627 10.2088C123.469 10.1229 123.292 10.0808 123.112 10.087C122.933 10.0932 122.758 10.1474 122.607 10.2439L117.59 13.4384L117.59 11.0854C117.589 10.9059 117.54 10.7298 117.448 10.5756C117.356 10.4214 117.224 10.2948 117.067 10.2088C116.909 10.1229 116.731 10.0808 116.552 10.087C116.372 10.0932 116.198 10.1474 116.046 10.2439L110.483 13.7866C110.341 13.8765 110.225 14.0008 110.144 14.148C110.063 14.2951 110.02 14.4602 110.02 14.6281C110.02 14.796 110.063 14.9611 110.144 15.1082C110.225 15.2553 110.341 15.3796 110.483 15.4696ZM123.142 11.0993L123.142 18.1562L117.602 14.6281L123.142 11.0993ZM116.581 11.0993L116.581 18.1562L111.041 14.6281L116.581 11.0993Z" fill="white"/>
<path d="M127.907 10.2396C127.907 7.81597 129.872 5.8512 132.296 5.8512H152.044C154.467 5.8512 156.432 7.81596 156.432 10.2396V19.0165C156.432 21.4401 154.467 23.4049 152.044 23.4049H132.296C129.872 23.4049 127.907 21.4401 127.907 19.0165V10.2396Z" fill="#18181B"/>
<path d="M143.633 19.0165L139.244 14.6281L143.633 10.2396L144.657 11.2636L141.292 14.6281L144.657 17.9925L143.633 19.0165Z" fill="white"/>
<path d="M188.197 13.7682L182.513 10.1485C182.358 10.0497 182.18 9.9941 181.996 9.98769C181.813 9.98127 181.631 10.0242 181.47 10.1121C181.309 10.1999 181.174 10.3294 181.08 10.4871C180.986 10.6447 180.936 10.8248 180.935 11.0084V13.4125L175.81 10.1485C175.655 10.0497 175.477 9.9941 175.293 9.98769C175.11 9.98127 174.928 10.0242 174.767 10.1121C174.605 10.1999 174.471 10.3294 174.377 10.4871C174.283 10.6447 174.233 10.8248 174.232 11.0084V18.2477C174.233 18.4312 174.283 18.6111 174.377 18.7686C174.471 18.9262 174.606 19.0556 174.767 19.1434C174.928 19.2312 175.11 19.2742 175.293 19.2679C175.477 19.2616 175.655 19.2062 175.81 19.1075L180.935 15.8436V18.2477C180.936 18.4312 180.986 18.6111 181.08 18.7686C181.174 18.9262 181.309 19.0556 181.47 19.1434C181.631 19.2312 181.813 19.2742 181.996 19.2679C182.18 19.2616 182.358 19.2062 182.513 19.1075L188.197 15.4878C188.342 15.3959 188.461 15.2689 188.544 15.1186C188.626 14.9683 188.67 14.7996 188.67 14.628C188.67 14.4565 188.626 14.2878 188.544 14.1375C188.461 13.9872 188.342 13.8601 188.197 13.7682ZM175.263 18.2335V11.0232L180.923 14.628L175.263 18.2335ZM181.966 18.2335V11.0232L187.627 14.628L181.966 18.2335Z" fill="white"/>
<path d="M221.194 19.0165C221.194 21.4401 219.23 23.4049 216.806 23.4049L197.058 23.4049C194.634 23.4049 192.67 21.4401 192.67 19.0165L192.67 10.2396C192.67 7.81596 194.634 5.85119 197.058 5.85119L216.806 5.85119C219.23 5.85119 221.194 7.81596 221.194 10.2396L221.194 19.0165Z" fill="#18181B"/>
<path d="M205.469 10.2396L209.857 14.628L205.469 19.0165L204.445 17.9925L207.809 14.628L204.445 11.2636L205.469 10.2396Z" fill="white"/>
</svg>
