<svg width="47" height="19" viewBox="0 0 47 19" fill="none" xmlns="http://www.w3.org/2000/svg">
<path d="M0.483063 10.4696L6.0462 14.0122C6.19758 14.109 6.37217 14.1634 6.55174 14.1697C6.73131 14.176 6.90927 14.1339 7.06705 14.0479C7.22482 13.962 7.35662 13.8352 7.44868 13.6809C7.54075 13.5266 7.5897 13.3504 7.59043 13.1707L7.59043 10.8178L12.6066 14.0122C12.758 14.109 12.9326 14.1634 13.1122 14.1697C13.2918 14.176 13.4697 14.1339 13.6275 14.0479C13.7853 13.962 13.9171 13.8352 14.0091 13.6809C14.1012 13.5266 14.1502 13.3504 14.1509 13.1707L14.1509 6.08545C14.1499 5.90585 14.1009 5.72979 14.0088 5.57561C13.9166 5.42144 13.7849 5.29478 13.6272 5.20884C13.4695 5.1229 13.2916 5.08083 13.1121 5.087C12.9326 5.09318 12.7581 5.14737 12.6067 5.24394L7.59043 8.43838L7.59043 6.08545C7.5895 5.90585 7.54042 5.72979 7.44831 5.57561C7.3562 5.42143 7.22443 5.29478 7.06672 5.20884C6.90902 5.1229 6.73116 5.08083 6.55167 5.087C6.37218 5.09318 6.19762 5.14737 6.0462 5.24394L0.483063 8.78659C0.341327 8.87654 0.22461 9.00084 0.143739 9.14795C0.0628695 9.29506 0.0204672 9.46022 0.0204672 9.62809C0.0204672 9.79596 0.0628694 9.96112 0.143739 10.1082C0.22461 10.2553 0.341327 10.3796 0.483063 10.4696ZM13.1416 6.09933L13.1416 13.1562L7.60178 9.62809L13.1416 6.09933ZM6.58113 6.09932L6.58113 13.1562L1.04133 9.62809L6.58113 6.09932Z" fill="white"/>
<path d="M17.9071 5.23963C17.9071 2.81597 19.8719 0.851196 22.2955 0.851196H42.0435C44.4671 0.851196 46.4319 2.81596 46.4319 5.23963V14.0165C46.4319 16.4401 44.4671 18.4049 42.0435 18.4049H22.2955C19.8719 18.4049 17.9071 16.4401 17.9071 14.0165V5.23963Z" fill="#18181B"/>
<path d="M33.6323 14.0165L29.2439 9.62805L33.6323 5.23962L34.6563 6.26359L31.2918 9.62805L34.6563 12.9925L33.6323 14.0165Z" fill="white"/>
</svg>
