<svg width="50" height="19" viewBox="0 0 50 19" fill="none" xmlns="http://www.w3.org/2000/svg">
<path d="M16.197 8.76823L10.5129 5.14855C10.3582 5.04966 10.1798 4.9941 9.99633 4.98769C9.81286 4.98127 9.63103 5.02423 9.46982 5.11208C9.30862 5.19992 9.17395 5.32943 9.07988 5.48709C8.98582 5.64475 8.9358 5.82477 8.93506 6.00835V8.41245L3.80975 5.14855C3.65507 5.04966 3.47668 4.9941 3.29321 4.98769C3.10973 4.98127 2.9279 5.02423 2.7667 5.11208C2.60549 5.19992 2.47083 5.32943 2.37676 5.48709C2.28269 5.64475 2.23268 5.82477 2.23193 6.00835V13.2477C2.23289 13.4312 2.28303 13.6111 2.37715 13.7686C2.47126 13.9262 2.6059 14.0556 2.76703 14.1434C2.92816 14.2312 3.10989 14.2742 3.29329 14.2679C3.47668 14.2616 3.65503 14.2062 3.80975 14.1075L8.93506 10.8436V13.2477C8.93601 13.4312 8.98616 13.6111 9.08027 13.7686C9.17438 13.9262 9.30902 14.0556 9.47015 14.1434C9.63128 14.2312 9.81301 14.2742 9.99641 14.2679C10.1798 14.2616 10.3582 14.2062 10.5129 14.1075L16.197 10.4878C16.3418 10.3959 16.4611 10.2689 16.5437 10.1186C16.6263 9.96831 16.6696 9.79956 16.6696 9.62804C16.6696 9.45651 16.6263 9.28777 16.5437 9.13746C16.4611 8.98715 16.3418 8.86015 16.197 8.76823ZM3.26318 13.2335V6.02318L8.92346 9.62804L3.26318 13.2335ZM9.96631 13.2335V6.02318L15.6266 9.62804L9.96631 13.2335Z" fill="white"/>
<path d="M49.1942 14.0165C49.1942 16.4401 47.2294 18.4049 44.8058 18.4049L25.0578 18.4049C22.6342 18.4049 20.6694 16.4401 20.6694 14.0165L20.6694 5.23962C20.6694 2.81596 22.6342 0.851188 25.0578 0.851188L44.8058 0.85119C47.2294 0.85119 49.1942 2.81596 49.1942 5.23962L49.1942 14.0165Z" fill="#18181B"/>
<path d="M33.469 5.23962L37.8574 9.62805L33.469 14.0165L32.445 12.9925L35.8095 9.62805L32.445 6.26359L33.469 5.23962Z" fill="white"/>
</svg>
