<svg width="19" height="18" viewBox="0 0 19 18" fill="none" xmlns="http://www.w3.org/2000/svg">
<path fill-rule="evenodd" clip-rule="evenodd" d="M4.76028 9.57192H13.5959C14.1817 9.57192 14.7436 9.3392 15.1578 8.92495C15.5721 8.5107 15.8048 7.94886 15.8048 7.36302C15.8048 6.77718 15.5721 6.21534 15.1578 5.80109C14.7436 5.38684 14.1817 5.15412 13.5959 5.15412C13.1247 5.15412 12.7315 4.81468 12.5386 4.38468C12.2484 3.73606 11.7767 3.18529 11.1804 2.79883C10.5841 2.41237 9.88867 2.20673 9.17809 2.20673C8.46751 2.20673 7.77212 2.41237 7.17582 2.79883C6.57953 3.18529 6.10781 3.73606 5.81761 4.38468C5.6247 4.81468 5.23151 5.15412 4.76028 5.15412C4.17444 5.15412 3.6126 5.38684 3.19835 5.80109C2.7841 6.21534 2.55138 6.77718 2.55138 7.36302C2.55138 7.94886 2.7841 8.5107 3.19835 8.92495C3.6126 9.3392 4.17444 9.57192 4.76028 9.57192Z" fill="black" fill-opacity="0.25"/>
<path d="M9.17808 9.13017H4.76027V10.0137H9.17808V9.13017ZM13.5959 9.13017H9.17808V10.0137H13.5959V9.13017ZM15.363 7.36304C15.363 7.83171 15.1768 8.28119 14.8454 8.61259C14.514 8.94399 14.0646 9.13017 13.5959 9.13017V10.0137C14.2989 10.0137 14.9731 9.73446 15.4702 9.23736C15.9673 8.74026 16.2466 8.06605 16.2466 7.36304H15.363ZM13.5959 5.59592C14.0646 5.59592 14.514 5.7821 14.8454 6.1135C15.1768 6.4449 15.363 6.89437 15.363 7.36304H16.2466C16.2466 6.66004 15.9673 5.98582 15.4702 5.48872C14.9731 4.99162 14.2989 4.71236 13.5959 4.71236V5.59592ZM12.9413 4.20431C12.616 3.47834 12.0876 2.86198 11.4199 2.42954C10.7522 1.9971 9.97361 1.76706 9.17808 1.76715V2.65071C9.80323 2.65042 10.4151 2.83101 10.9399 3.1707C11.4647 3.51038 11.8801 3.99465 12.1358 4.5651L12.9413 4.20431ZM9.17808 1.76715C8.38256 1.76706 7.60399 1.9971 6.93626 2.42954C6.26854 2.86198 5.74016 3.47834 5.41485 4.20431L6.22036 4.5651C6.4761 3.99465 6.89143 3.51038 7.41624 3.1707C7.94105 2.83101 8.55293 2.65042 9.17808 2.65071V1.76715ZM4.76027 4.71236C4.05727 4.71236 3.38306 4.99162 2.88596 5.48872C2.38886 5.98582 2.10959 6.66004 2.10959 7.36304H2.99315C2.99315 6.89437 3.17933 6.4449 3.51073 6.1135C3.84213 5.7821 4.2916 5.59592 4.76027 5.59592V4.71236ZM2.10959 7.36304C2.10959 8.06605 2.38886 8.74026 2.88596 9.23736C3.38306 9.73446 4.05727 10.0137 4.76027 10.0137V9.13017C4.2916 9.13017 3.84213 8.94399 3.51073 8.61259C3.17933 8.28119 2.99315 7.83171 2.99315 7.36304H2.10959ZM5.41485 4.20431C5.26906 4.52828 5.0062 4.71236 4.76027 4.71236V5.59592C5.45681 5.59592 5.98032 5.10112 6.22036 4.5651L5.41485 4.20431ZM13.5959 4.71236C13.35 4.71236 13.0871 4.52828 12.9413 4.20431L12.1358 4.5651C12.3758 5.10112 12.8993 5.59592 13.5959 5.59592V4.71236Z" fill="#383838"/>
<path d="M9.17808 13.2534V11.7808M12.8596 13.9897V11.7808M5.49657 14.726V11.7808" stroke="#383838" stroke-width="2.25442" stroke-linecap="round"/>
</svg>
