<svg width="19" height="18" viewBox="0 0 19 18" fill="none" xmlns="http://www.w3.org/2000/svg">
<path d="M9.50686 9.20377H5.08905V9.94007H9.50686V9.20377ZM13.9247 9.20377H9.50686V9.94007H13.9247V9.20377ZM15.7654 7.36302C15.7654 7.60475 15.7178 7.84412 15.6253 8.06745C15.5328 8.29078 15.3972 8.4937 15.2263 8.66463C15.0553 8.83556 14.8524 8.97115 14.6291 9.06365C14.4058 9.15616 14.1664 9.20377 13.9247 9.20377V9.94007C14.6081 9.94007 15.2636 9.66856 15.7469 9.18527C16.2302 8.70198 16.5017 8.0465 16.5017 7.36302H15.7654ZM13.9247 5.52227C14.1664 5.52227 14.4058 5.56988 14.6291 5.66239C14.8524 5.75489 15.0553 5.89048 15.2263 6.06141C15.3972 6.23234 15.5328 6.43526 15.6253 6.65859C15.7178 6.88192 15.7654 7.12129 15.7654 7.36302H16.5017C16.5017 6.67954 16.2302 6.02406 15.7469 5.54077C15.2636 5.05748 14.6081 4.78596 13.9247 4.78596V5.52227ZM13.2031 4.23374C12.8835 3.52083 12.3645 2.91558 11.7086 2.49099C11.0528 2.0664 10.2881 1.84058 9.50686 1.84076V2.57706C10.1463 2.57687 10.772 2.76168 11.3087 3.1092C11.8455 3.45673 12.2701 3.95212 12.5316 4.53562L13.2031 4.23374ZM9.50686 1.84076C8.72558 1.84058 7.96092 2.0664 7.30509 2.49099C6.64925 2.91558 6.13024 3.52083 5.81062 4.23374L6.48213 4.53562C6.74357 3.95212 7.16826 3.45673 7.70496 3.1092C8.24167 2.76168 8.86746 2.57687 9.50686 2.57706V1.84076ZM5.08905 4.78596C4.40557 4.78596 3.75009 5.05748 3.2668 5.54077C2.7835 6.02406 2.51199 6.67954 2.51199 7.36302H3.24829C3.24829 6.87482 3.44223 6.40662 3.78744 6.06141C4.13265 5.7162 4.60085 5.52227 5.08905 5.52227V4.78596ZM2.51199 7.36302C2.51199 8.0465 2.7835 8.70198 3.2668 9.18527C3.75009 9.66856 4.40557 9.94007 5.08905 9.94007V9.20377C4.60085 9.20377 4.13265 9.00984 3.78744 8.66463C3.44223 8.31942 3.24829 7.85122 3.24829 7.36302H2.51199ZM5.81062 4.23374C5.65674 4.57538 5.37252 4.78596 5.08905 4.78596V5.52227C5.74804 5.52227 6.2502 5.05324 6.48213 4.53562L5.81062 4.23374ZM13.9247 4.78596C13.6412 4.78596 13.357 4.57538 13.2031 4.23374L12.5316 4.53562C12.7643 5.05324 13.2657 5.52227 13.9247 5.52227V4.78596Z" fill="#383838"/>
<path d="M9.50685 13.9898V12.5172M13.1884 14.7261V12.5172M5.82535 15.4624V12.5172" stroke="#383838" stroke-width="1.87868" stroke-linecap="round"/>
</svg>
