<svg width="84" height="19" viewBox="0 0 84 19" fill="none" xmlns="http://www.w3.org/2000/svg">
<path d="M12.3096 5.59095V13.6654C12.3096 13.7992 12.2564 13.9276 12.1617 14.0222C12.0671 14.1168 11.9387 14.17 11.8049 14.17C11.6711 14.17 11.5427 14.1168 11.4481 14.0222C11.3534 13.9276 11.3003 13.7992 11.3003 13.6654V5.59095C11.3003 5.45711 11.3534 5.32875 11.4481 5.23411C11.5427 5.13947 11.6711 5.0863 11.8049 5.0863C11.9387 5.0863 12.0671 5.13947 12.1617 5.23411C12.2564 5.32875 12.3096 5.45711 12.3096 5.59095ZM14.8328 5.0863C14.699 5.0863 14.5706 5.13947 14.476 5.23411C14.3813 5.32875 14.3282 5.45711 14.3282 5.59095V13.6654C14.3282 13.7992 14.3813 13.9276 14.476 14.0222C14.5706 14.1168 14.699 14.17 14.8328 14.17C14.9666 14.17 15.095 14.1168 15.1896 14.0222C15.2843 13.9276 15.3375 13.7992 15.3375 13.6654V5.59095C15.3375 5.45711 15.2843 5.32875 15.1896 5.23411C15.095 5.13947 14.9666 5.0863 14.8328 5.0863ZM9.7863 9.62815C9.78656 9.79605 9.74429 9.96128 9.66344 10.1084C9.58258 10.2556 9.46578 10.3799 9.32392 10.4697L3.76078 14.0117C3.6094 14.1085 3.43481 14.1628 3.25524 14.1691C3.07567 14.1754 2.89771 14.1333 2.73993 14.0474C2.58216 13.9614 2.45036 13.8346 2.3583 13.6803C2.26623 13.526 2.21728 13.3498 2.21655 13.1702V6.08614C2.21728 5.90646 2.26623 5.73028 2.3583 5.57598C2.45036 5.42168 2.58216 5.29492 2.73993 5.20894C2.89771 5.12297 3.07567 5.08092 3.25524 5.0872C3.43481 5.09348 3.6094 5.14785 3.76078 5.24464L9.32392 8.78665C9.46578 8.87646 9.58258 9.00073 9.66344 9.14788C9.74429 9.29503 9.78656 9.46026 9.7863 9.62815ZM8.76565 9.62815L3.22585 6.10065V13.1563L8.76565 9.62815Z" fill="white"/>
<path d="M20.8513 5.23963C20.8513 2.81597 22.8161 0.851196 25.2397 0.851196H78.6323C81.056 0.851196 83.0207 2.81596 83.0207 5.23963V14.0165C83.0207 16.4401 81.056 18.4049 78.6323 18.4049H25.2397C22.8161 18.4049 20.8513 16.4401 20.8513 14.0165V5.23963Z" fill="#18181B"/>
<rect x="40.965" y="3.77686" width="21.9421" height="1.46281" fill="#D9D9D9"/>
</svg>
