<svg width="18" height="18" viewBox="0 0 18 18" fill="none" xmlns="http://www.w3.org/2000/svg">
<path d="M8.99486 9.48362H4.57705V10.2199H8.99486V9.48362ZM13.4127 9.48362H8.99486V10.2199H13.4127V9.48362ZM15.2534 7.64287C15.2534 7.8846 15.2058 8.12396 15.1133 8.34729C15.0208 8.57062 14.8852 8.77355 14.7143 8.94447C14.5433 9.1154 14.3404 9.25099 14.1171 9.3435C13.8938 9.43601 13.6544 9.48362 13.4127 9.48362V10.2199C14.0961 10.2199 14.7516 9.94841 15.2349 9.46512C15.7182 8.98183 15.9897 8.32634 15.9897 7.64287H15.2534ZM13.4127 5.80211C13.6544 5.80211 13.8938 5.84972 14.1171 5.94223C14.3404 6.03474 14.5433 6.17033 14.7143 6.34126C14.8852 6.51219 15.0208 6.71511 15.1133 6.93844C15.2058 7.16177 15.2534 7.40113 15.2534 7.64287H15.9897C15.9897 6.95939 15.7182 6.3039 15.2349 5.82061C14.7516 5.33732 14.0961 5.06581 13.4127 5.06581V5.80211ZM12.6911 4.51359C12.3715 3.80067 11.8525 3.19543 11.1966 2.77084C10.5408 2.34624 9.77614 2.12042 8.99486 2.12061V2.85691C9.63426 2.85671 10.2601 3.04152 10.7968 3.38905C11.3335 3.73657 11.7581 4.23197 12.0196 4.81547L12.6911 4.51359ZM8.99486 2.12061C8.21358 2.12042 7.44893 2.34624 6.79309 2.77084C6.13726 3.19543 5.61824 3.80067 5.29863 4.51359L5.97014 4.81547C6.23158 4.23197 6.65627 3.73657 7.19297 3.38905C7.72967 3.04152 8.35547 2.85671 8.99486 2.85691V2.12061ZM4.57705 5.06581C3.89358 5.06581 3.23809 5.33732 2.7548 5.82061C2.27151 6.3039 2 6.95939 2 7.64287H2.7363C2.7363 7.15467 2.93024 6.68646 3.27545 6.34126C3.62065 5.99605 4.08886 5.80211 4.57705 5.80211V5.06581ZM2 7.64287C2 8.32634 2.27151 8.98183 2.7548 9.46512C3.23809 9.94841 3.89358 10.2199 4.57705 10.2199V9.48362C4.08886 9.48362 3.62065 9.28968 3.27545 8.94447C2.93024 8.59927 2.7363 8.13106 2.7363 7.64287H2ZM5.29863 4.51359C5.14474 4.85523 4.86053 5.06581 4.57705 5.06581V5.80211C5.23604 5.80211 5.7382 5.33309 5.97014 4.81547L5.29863 4.51359ZM13.4127 5.06581C13.1292 5.06581 12.845 4.85523 12.6911 4.51359L12.0196 4.81547C12.2523 5.33309 12.7537 5.80211 13.4127 5.80211V5.06581Z" fill="#383838"/>
<path d="M8.30025 13.3235V12.7971M11.9818 13.3235V12.7971M4.61874 13.3235V12.7971" stroke="#383838" stroke-width="1.87868" stroke-linecap="round"/>
<path d="M9.68151 15.8123V15.2858M13.363 15.8123V15.2858M6 15.8123V15.2858" stroke="#383838" stroke-width="1.87868" stroke-linecap="round"/>
</svg>
