<svg width="18" height="18" viewBox="0 0 18 18" fill="none" xmlns="http://www.w3.org/2000/svg">
<path fill-rule="evenodd" clip-rule="evenodd" d="M4.43151 10.3082H13.2671C13.5572 10.3082 13.8444 10.2511 14.1124 10.14C14.3804 10.029 14.6239 9.86633 14.8291 9.66122C15.0342 9.4561 15.1969 9.21259 15.3079 8.9446C15.4189 8.6766 15.476 8.38936 15.476 8.09929C15.476 7.80921 15.4189 7.52197 15.3079 7.25398C15.1969 6.98598 15.0342 6.74247 14.8291 6.53736C14.6239 6.33224 14.3804 6.16953 14.1124 6.05853C13.8444 5.94752 13.5572 5.89038 13.2671 5.89038C12.7959 5.89038 12.4027 5.55095 12.2098 5.12095C11.9196 4.47233 11.4479 3.92156 10.8516 3.5351C10.2553 3.14863 9.5599 2.94299 8.84932 2.94299C8.13874 2.94299 7.44335 3.14863 6.84705 3.5351C6.25076 3.92156 5.77905 4.47233 5.48884 5.12095C5.29593 5.55095 4.90275 5.89038 4.43151 5.89038C3.84568 5.89038 3.28383 6.12311 2.86958 6.53736C2.45533 6.95161 2.22261 7.51345 2.22261 8.09929C2.22261 8.68512 2.45533 9.24697 2.86958 9.66122C3.28383 10.0755 3.84568 10.3082 4.43151 10.3082Z" fill="#383838"/>
<path d="M8.84932 13.9898V12.5172M12.5308 14.7261V12.5172M5.16781 15.4624V12.5172" stroke="#383838" stroke-width="2.35616" stroke-linecap="round"/>
</svg>
